<svg width="140" height="582" viewBox="0 0 140 582" fill="none" xmlns="http://www.w3.org/2000/svg">
<path d="M128.024 149.278L131.625 147.385L130.938 151.395L133.852 154.235L129.826 154.82L128.024 158.469L126.224 154.82L122.198 154.235L125.111 151.395L124.423 147.385L128.024 149.278Z" fill="#FACC15"/>
<g clip-path="url(#clip0_1_6317)">
<path d="M133.524 384.576L136.354 383.089L135.813 386.239L138.103 388.47L134.94 388.93L133.524 391.797L132.11 388.93L128.946 388.47L131.235 386.239L130.695 383.089L133.524 384.576Z" fill="#FACC15"/>
</g>
<g clip-path="url(#clip1_1_6317)">
<path d="M104.49 206.564C106.101 206.564 107.407 207.87 107.407 209.481C107.407 211.092 106.101 212.398 104.49 212.398C102.879 212.398 101.574 211.092 101.574 209.481C101.574 207.87 102.879 206.564 104.49 206.564Z" fill="#FACC15"/>
</g>
<g clip-path="url(#clip2_1_6317)">
<path d="M105.973 93.6449C107.814 93.6449 109.306 95.1372 109.306 96.9782C109.306 98.8192 107.814 100.312 105.973 100.312C104.132 100.312 102.639 98.8192 102.639 96.9782C102.639 95.1372 104.132 93.6449 105.973 93.6449Z" fill="#FACC15"/>
</g>
<g clip-path="url(#clip3_1_6317)">
<path d="M41.0244 73.8058C43.3256 73.8058 45.191 75.6712 45.191 77.9725C45.191 80.2737 43.3256 82.1392 41.0244 82.1392C38.7231 82.1392 36.8577 80.2737 36.8577 77.9725C36.8577 75.6712 38.7231 73.8058 41.0244 73.8058Z" fill="#FACC15"/>
</g>
<g clip-path="url(#clip4_1_6317)">
<path d="M73.9765 167.806C76.2778 167.806 78.1432 169.671 78.1432 171.973C78.1432 174.274 76.2778 176.139 73.9765 176.139C71.6753 176.139 69.8099 174.274 69.8099 171.973C69.8099 169.671 71.6753 167.806 73.9765 167.806Z" fill="#FACC15"/>
</g>
<g clip-path="url(#clip5_1_6317)">
<path d="M123.524 514.886C126.056 514.886 128.108 516.938 128.108 519.47C128.108 522.001 126.056 524.053 123.524 524.053C120.993 524.053 118.941 522.001 118.941 519.47C118.941 516.938 120.993 514.886 123.524 514.886Z" fill="#FACC15"/>
</g>
<g clip-path="url(#clip6_1_6317)">
<path d="M123.024 289.322C123.945 289.322 124.691 290.068 124.691 290.989C124.691 291.909 123.945 292.655 123.024 292.655C122.104 292.655 121.358 291.909 121.358 290.989C121.358 290.068 122.104 289.322 123.024 289.322Z" fill="#FACC15"/>
</g>
<g clip-path="url(#clip7_1_6317)">
<path d="M3.49996 252.564C5.11083 252.564 6.41663 253.87 6.41663 255.481C6.41663 257.092 5.11083 258.398 3.49996 258.398C1.88908 258.398 0.583293 257.092 0.583293 255.481C0.583293 253.87 1.88908 252.564 3.49996 252.564Z" fill="#FACC15"/>
</g>
<g clip-path="url(#clip8_1_6317)">
<path d="M8.97852 485.483C10.3593 485.483 11.4785 486.603 11.4785 487.983C11.4785 489.364 10.3593 490.483 8.97852 490.483C7.59777 490.483 6.47852 489.364 6.47852 487.983C6.47852 486.603 7.59777 485.483 8.97852 485.483Z" fill="#FACC15"/>
</g>
<path d="M88.6494 419.875V423C88.6494 423.165 88.7153 423.324 88.8325 423.441C88.9497 423.559 89.1087 423.625 89.2744 423.625C89.4402 423.625 89.5991 423.559 89.7164 423.441C89.8336 423.324 89.8994 423.165 89.8994 423V419.875H93.0244C93.1902 419.875 93.3491 419.809 93.4664 419.691C93.5836 419.574 93.6494 419.415 93.6494 419.25C93.6494 419.084 93.5836 418.925 93.4664 418.808C93.3491 418.69 93.1902 418.625 93.0244 418.625H89.8994V415.5C89.8994 415.334 89.8336 415.175 89.7164 415.058C89.5991 414.94 89.4402 414.875 89.2744 414.875C89.1087 414.875 88.9497 414.94 88.8325 415.058C88.7153 415.175 88.6494 415.334 88.6494 415.5V418.625H85.5244C85.3587 418.625 85.1997 418.69 85.0825 418.808C84.9653 418.925 84.8994 419.084 84.8994 419.25C84.8994 419.415 84.9653 419.574 85.0825 419.691C85.1997 419.809 85.3587 419.875 85.5244 419.875H88.6494Z" fill="#FACC15"/>
<path d="M105.558 348.199V349.866C105.558 349.955 105.593 350.039 105.655 350.102C105.718 350.164 105.803 350.199 105.891 350.199C105.979 350.199 106.064 350.164 106.127 350.102C106.189 350.039 106.224 349.955 106.224 349.866V348.199H107.891C107.979 348.199 108.064 348.164 108.127 348.102C108.189 348.039 108.224 347.955 108.224 347.866C108.224 347.778 108.189 347.693 108.127 347.63C108.064 347.568 107.979 347.533 107.891 347.533H106.224V345.866C106.224 345.778 106.189 345.693 106.127 345.63C106.064 345.568 105.979 345.533 105.891 345.533C105.803 345.533 105.718 345.568 105.655 345.63C105.593 345.693 105.558 345.778 105.558 345.866V347.533H103.891C103.803 347.533 103.718 347.568 103.655 347.63C103.593 347.693 103.558 347.778 103.558 347.866C103.558 347.955 103.593 348.039 103.655 348.102C103.718 348.164 103.803 348.199 103.891 348.199H105.558Z" fill="#FACC15"/>
<g clip-path="url(#clip9_1_6317)">
<path d="M49.0244 312.483C50.4052 312.483 51.5244 313.602 51.5244 314.983C51.5244 316.364 50.4052 317.483 49.0244 317.483C47.6437 317.483 46.5244 316.364 46.5244 314.983C46.5244 313.602 47.6437 312.483 49.0244 312.483Z" fill="#FACC15"/>
</g>
<path d="M89.3245 41.2996V43.7996C89.3245 43.9322 89.3771 44.0593 89.4709 44.1531C89.5647 44.2469 89.6919 44.2996 89.8245 44.2996C89.9571 44.2996 90.0842 44.2469 90.178 44.1531C90.2718 44.0593 90.3245 43.9322 90.3245 43.7996V41.2996H92.8245C92.9571 41.2996 93.0842 41.2469 93.178 41.1531C93.2718 41.0593 93.3245 40.9322 93.3245 40.7996C93.3245 40.667 93.2718 40.5398 93.178 40.446C93.0842 40.3522 92.9571 40.2996 92.8245 40.2996H90.3245V37.7996C90.3245 37.667 90.2718 37.5398 90.178 37.446C90.0842 37.3522 89.9571 37.2996 89.8245 37.2996C89.6919 37.2996 89.5647 37.3522 89.4709 37.446C89.3771 37.5398 89.3245 37.667 89.3245 37.7996V40.2996H86.8245C86.6919 40.2996 86.5647 40.3522 86.4709 40.446C86.3771 40.5398 86.3245 40.667 86.3245 40.7996C86.3245 40.9322 86.3771 41.0593 86.4709 41.1531C86.5647 41.2469 86.6919 41.2996 86.8245 41.2996H89.3245Z" fill="#FACC15"/>
<path d="M3.2507 164.52L2.51424 165.257C2.49435 165.276 2.47847 165.299 2.46756 165.325C2.45664 165.35 2.45089 165.377 2.45065 165.405C2.45041 165.433 2.45568 165.46 2.46616 165.486C2.47663 165.511 2.4921 165.535 2.51166 165.554C2.53122 165.574 2.55448 165.589 2.58009 165.6C2.60569 165.61 2.63312 165.615 2.66079 165.615C2.68845 165.615 2.71579 165.609 2.7412 165.598C2.76662 165.587 2.78961 165.572 2.80883 165.552L3.54549 164.815L4.28195 165.552C4.30117 165.572 4.32416 165.587 4.34958 165.598C4.37499 165.609 4.40233 165.615 4.42999 165.615C4.45766 165.615 4.48509 165.61 4.51069 165.6C4.5363 165.589 4.55956 165.574 4.57912 165.554C4.59868 165.535 4.61415 165.511 4.62462 165.486C4.6351 165.46 4.64037 165.433 4.64013 165.405C4.63989 165.377 4.63414 165.35 4.62322 165.325C4.6123 165.299 4.59643 165.276 4.57654 165.257L3.84008 164.521L4.57654 163.784C4.59643 163.765 4.6123 163.742 4.62322 163.716C4.63414 163.691 4.63989 163.664 4.64013 163.636C4.64037 163.608 4.6351 163.581 4.62462 163.555C4.61415 163.53 4.59868 163.506 4.57912 163.487C4.55956 163.467 4.5363 163.452 4.51069 163.441C4.48509 163.431 4.45766 163.426 4.42999 163.426C4.40233 163.426 4.37499 163.432 4.34958 163.443C4.32416 163.454 4.30117 163.469 4.28195 163.489L3.54549 164.226L2.80883 163.489C2.78961 163.469 2.76662 163.454 2.7412 163.443C2.71579 163.432 2.68845 163.426 2.66079 163.426C2.63312 163.426 2.60569 163.431 2.58009 163.441C2.55448 163.452 2.53122 163.467 2.51166 163.487C2.4921 163.506 2.47663 163.53 2.46616 163.555C2.45568 163.581 2.45041 163.608 2.45065 163.636C2.45089 163.664 2.45664 163.691 2.46756 163.716C2.47847 163.742 2.49435 163.765 2.51424 163.784L3.2507 164.521V164.52Z" fill="#FACC15"/>
<path d="M101.703 574.562L99.4938 576.772C99.4341 576.83 99.3865 576.899 99.3537 576.975C99.321 577.051 99.3037 577.133 99.303 577.216C99.3023 577.299 99.3181 577.382 99.3495 577.458C99.3809 577.535 99.4274 577.605 99.486 577.664C99.5447 577.722 99.6145 577.769 99.6913 577.8C99.7681 577.832 99.8504 577.847 99.9334 577.847C100.016 577.846 100.098 577.829 100.175 577.796C100.251 577.763 100.32 577.716 100.378 577.656L102.588 575.446L104.797 577.656C104.855 577.716 104.924 577.763 105 577.796C105.076 577.829 105.158 577.846 105.241 577.847C105.324 577.847 105.406 577.832 105.483 577.8C105.56 577.769 105.63 577.722 105.688 577.664C105.747 577.605 105.793 577.535 105.825 577.458C105.856 577.382 105.872 577.299 105.871 577.216C105.871 577.133 105.853 577.051 105.821 576.975C105.788 576.899 105.74 576.83 105.681 576.772L103.471 574.563L105.681 572.353C105.74 572.295 105.788 572.226 105.821 572.15C105.853 572.074 105.871 571.992 105.871 571.909C105.872 571.826 105.856 571.743 105.825 571.667C105.793 571.59 105.747 571.52 105.688 571.461C105.63 571.403 105.56 571.356 105.483 571.325C105.406 571.293 105.324 571.277 105.241 571.278C105.158 571.279 105.076 571.296 105 571.329C104.924 571.362 104.855 571.409 104.797 571.469L102.588 573.678L100.378 571.469C100.32 571.409 100.251 571.362 100.175 571.329C100.098 571.296 100.016 571.279 99.9334 571.278C99.8504 571.277 99.7681 571.293 99.6913 571.325C99.6145 571.356 99.5447 571.403 99.486 571.461C99.4274 571.52 99.3809 571.59 99.3495 571.667C99.3181 571.743 99.3023 571.826 99.303 571.909C99.3037 571.992 99.321 572.074 99.3537 572.15C99.3865 572.226 99.4341 572.295 99.4938 572.353L101.703 574.563V574.562Z" fill="#FACC15"/>
<path d="M9.28833 6.30005V8.80005C9.28833 8.93266 9.34101 9.05983 9.43478 9.1536C9.52854 9.24737 9.65572 9.30005 9.78833 9.30005C9.92094 9.30005 10.0481 9.24737 10.1419 9.1536C10.2357 9.05983 10.2883 8.93266 10.2883 8.80005V6.30005H12.7883C12.9209 6.30005 13.0481 6.24737 13.1419 6.1536C13.2357 6.05983 13.2883 5.93266 13.2883 5.80005C13.2883 5.66744 13.2357 5.54026 13.1419 5.4465C13.0481 5.35273 12.9209 5.30005 12.7883 5.30005H10.2883V2.80005C10.2883 2.66744 10.2357 2.54026 10.1419 2.4465C10.0481 2.35273 9.92094 2.30005 9.78833 2.30005C9.65572 2.30005 9.52854 2.35273 9.43478 2.4465C9.34101 2.54026 9.28833 2.66744 9.28833 2.80005V5.30005H6.78833C6.65572 5.30005 6.52854 5.35273 6.43478 5.4465C6.34101 5.54026 6.28833 5.66744 6.28833 5.80005C6.28833 5.93266 6.34101 6.05983 6.43478 6.1536C6.52854 6.24737 6.65572 6.30005 6.78833 6.30005H9.28833Z" fill="#FACC15"/>
<path d="M76.4411 520.25V522.333C76.4411 522.443 76.485 522.549 76.5631 522.627C76.6413 522.706 76.7472 522.75 76.8577 522.75C76.9683 522.75 77.0742 522.706 77.1524 522.627C77.2305 522.549 77.2744 522.443 77.2744 522.333V520.25H79.3577C79.4683 520.25 79.5742 520.206 79.6524 520.127C79.7305 520.049 79.7744 519.943 79.7744 519.833C79.7744 519.722 79.7305 519.616 79.6524 519.538C79.5742 519.46 79.4683 519.416 79.3577 519.416H77.2744V517.333C77.2744 517.222 77.2305 517.116 77.1524 517.038C77.0742 516.96 76.9683 516.916 76.8577 516.916C76.7472 516.916 76.6413 516.96 76.5631 517.038C76.485 517.116 76.4411 517.222 76.4411 517.333V519.416H74.3577C74.2472 519.416 74.1413 519.46 74.0631 519.538C73.985 519.616 73.9411 519.722 73.9411 519.833C73.9411 519.943 73.985 520.049 74.0631 520.127C74.1413 520.206 74.2472 520.25 74.3577 520.25H76.4411Z" fill="#FACC15"/>
<path d="M26.5865 191.033L25.4081 192.212C25.3763 192.242 25.3509 192.279 25.3334 192.32C25.316 192.36 25.3068 192.404 25.3064 192.448C25.306 192.493 25.3144 192.537 25.3312 192.578C25.348 192.619 25.3727 192.656 25.404 192.687C25.4353 192.718 25.4725 192.743 25.5135 192.76C25.5545 192.777 25.5983 192.785 25.6426 192.785C25.6869 192.784 25.7306 192.775 25.7713 192.758C25.8119 192.74 25.8487 192.715 25.8795 192.683L27.0581 191.505L28.2365 192.683C28.2672 192.715 28.304 192.74 28.3447 192.758C28.3853 192.775 28.4291 192.784 28.4733 192.785C28.5176 192.785 28.5615 192.777 28.6025 192.76C28.6434 192.743 28.6806 192.718 28.7119 192.687C28.7432 192.656 28.768 192.619 28.7847 192.578C28.8015 192.537 28.8099 192.493 28.8096 192.448C28.8092 192.404 28.8 192.36 28.7825 192.32C28.765 192.279 28.7396 192.242 28.7078 192.212L27.5295 191.033L28.7078 189.855C28.7396 189.824 28.765 189.787 28.7825 189.746C28.8 189.706 28.8092 189.662 28.8096 189.618C28.8099 189.573 28.8015 189.53 28.7847 189.489C28.768 189.448 28.7432 189.41 28.7119 189.379C28.6806 189.348 28.6434 189.323 28.6025 189.306C28.5615 189.29 28.5176 189.281 28.4733 189.281C28.4291 189.282 28.3853 189.291 28.3447 189.309C28.304 189.326 28.2672 189.351 28.2365 189.383L27.0581 190.562L25.8795 189.383C25.8487 189.351 25.8119 189.326 25.7713 189.309C25.7306 189.291 25.6869 189.282 25.6426 189.281C25.5983 189.281 25.5545 189.29 25.5135 189.306C25.4725 189.323 25.4353 189.348 25.404 189.379C25.3727 189.41 25.348 189.448 25.3312 189.489C25.3144 189.53 25.306 189.573 25.3064 189.618C25.3068 189.662 25.316 189.706 25.3334 189.746C25.3509 189.787 25.3763 189.824 25.4081 189.855L26.5865 191.033V191.033Z" fill="#FACC15"/>
<defs>
<clipPath id="clip0_1_6317">
<rect width="11" height="11" fill="white" transform="matrix(-1 0 0 -1 139.024 393)"/>
</clipPath>
<clipPath id="clip1_1_6317">
<rect width="7" height="7" fill="white" transform="matrix(-1 0 0 -1 107.99 213)"/>
</clipPath>
<clipPath id="clip2_1_6317">
<rect width="8" height="8" fill="white" transform="matrix(-1 0 0 -1 109.973 101)"/>
</clipPath>
<clipPath id="clip3_1_6317">
<rect width="10" height="10" fill="white" transform="matrix(-1 0 0 -1 46.0244 82.9995)"/>
</clipPath>
<clipPath id="clip4_1_6317">
<rect width="10" height="10" fill="white" transform="matrix(-1 0 0 -1 78.9766 177)"/>
</clipPath>
<clipPath id="clip5_1_6317">
<rect width="11" height="11" fill="white" transform="matrix(-1 0 0 -1 129.024 525)"/>
</clipPath>
<clipPath id="clip6_1_6317">
<rect width="4" height="4" fill="white" transform="matrix(-1 0 0 -1 125.024 293)"/>
</clipPath>
<clipPath id="clip7_1_6317">
<rect width="7" height="7" fill="white" transform="matrix(-1 0 0 -1 7 259)"/>
</clipPath>
<clipPath id="clip8_1_6317">
<rect width="6" height="6" fill="white" transform="matrix(-1 0 0 -1 11.9785 491)"/>
</clipPath>
<clipPath id="clip9_1_6317">
<rect width="6" height="6" fill="white" transform="matrix(-1 0 0 -1 52.0244 318)"/>
</clipPath>
</defs>
</svg>
