<svg width="26" height="33" viewBox="0 0 26 33" fill="none" xmlns="http://www.w3.org/2000/svg">
<path d="M15.7631 9.30408C16.7145 9.30496 17.6551 9.51155 18.5234 9.91029C19.3917 10.3091 20.1683 10.8911 20.8026 11.6184L22.7883 9.78239C21.5173 8.33274 19.8497 7.30966 18.0032 6.84673C16.1568 6.38375 14.2172 6.50239 12.4374 7.18714C10.6576 7.87189 9.12043 9.09094 8.02642 10.6852C6.93236 12.2795 6.33231 14.175 6.30448 16.1244C6.27665 18.0737 6.82239 19.9864 7.87044 21.6129C8.91854 23.2393 10.4203 24.504 12.1797 25.2419C13.9391 25.9798 15.8746 26.1566 17.7335 25.7493C19.5924 25.3419 21.2884 24.3694 22.6003 22.9585L20.6597 21.0685C19.8866 21.8976 18.9253 22.5174 17.8617 22.8723C16.7981 23.2273 15.6652 23.3064 14.5645 23.1026C13.4638 22.8988 12.4295 22.4184 11.554 21.7045C10.6785 20.9905 9.98918 20.0651 9.54763 19.0111C9.10603 17.9571 8.92596 16.8073 9.02351 15.6645C9.12111 14.5217 9.49323 13.4215 10.1067 12.4622C10.7201 11.503 11.5558 10.7146 12.5389 10.1675C13.5221 9.6204 14.6221 9.33172 15.7406 9.32721L15.7631 9.30408Z" fill="#64748B"/>
<path d="M6.78787 7.01016L4.8288 5.11475C3.29837 6.57666 2.08397 8.31436 1.25527 10.2281C0.426618 12.1418 0 14.1938 0 16.2663C0 18.3387 0.426618 20.3907 1.25527 22.3044C2.08397 24.2181 3.29837 25.9558 4.8288 27.4178L6.78787 25.5223C5.5119 24.312 4.49886 22.8707 3.80741 21.2818C3.11602 19.6929 2.76 17.9881 2.76 16.2663C2.76 14.5444 3.11602 12.8396 3.80741 11.2507C4.49886 9.66184 5.5119 8.22049 6.78787 7.01016Z" fill="#64748B"/>
<path d="M25.2125 3.40566C22.5413 1.36198 19.3136 0.261955 16.0004 0.266125V3.01807C18.7342 3.01546 21.398 3.9195 23.6065 5.59945L25.2125 3.40566Z" fill="#64748B"/>
<path d="M16.0004 29.5511V32.266C19.0996 32.2695 22.1326 31.3658 24.7276 29.6658L23.2032 27.4175C21.0588 28.8134 18.5566 29.5546 16.0004 29.5511Z" fill="#64748B"/>
<path d="M16 26.1983C13.9005 26.1969 11.8521 25.569 10.1322 24.3996C8.41216 23.2302 7.10366 21.5757 6.38366 19.6602L3.87878 20.79C4.82206 23.1689 6.48509 25.2144 8.64882 26.6571C10.8125 28.0999 13.3755 28.8721 16 28.8723V26.1983Z" fill="#64748B"/>
<path d="M6.06834 15.7814C6.23096 13.2308 7.34776 10.8383 9.19207 9.08919C11.0364 7.34015 13.4701 6.36551 15.9995 6.36304V3.66016C12.7604 3.66006 9.64521 4.91834 7.29869 7.17458C4.95217 9.43087 3.55392 12.5124 3.39343 15.7814H6.06834Z" fill="#64748B"/>
</svg>
