<svg width="30" height="33" viewBox="0 0 30 33" fill="none" xmlns="http://www.w3.org/2000/svg">
<path d="M14.6358 22.0523C13.7585 22.0562 12.8928 21.8437 12.1097 21.4322C11.3266 21.0206 10.6484 20.4219 10.1308 19.685L6.52313 21.8406C6.66042 22.0052 6.82294 22.1451 7.00417 22.2544L13.424 26.1037C13.7992 26.3031 14.2145 26.407 14.6358 26.407C15.0571 26.407 15.4724 26.3031 15.8476 26.1037L22.2674 22.2544C22.4487 22.1451 22.6112 22.0052 22.7485 21.8406L19.1501 19.6465C18.6355 20.3918 17.9576 20.9988 17.1726 21.4172C16.3875 21.8356 15.5179 22.0533 14.6358 22.0523Z" fill="#64748B"/>
<path d="M8.98639 16.2433C8.98968 14.8748 9.5216 13.5553 10.4805 12.5372C11.4394 11.5191 12.758 10.8738 14.1842 10.7245V6.57617C13.9678 6.61908 13.7597 6.69354 13.567 6.79693L6.87448 10.4762C6.51072 10.7083 6.20825 11.0175 5.99079 11.3798C5.77328 11.7421 5.64667 12.1474 5.62085 12.5641V19.9225C5.62382 20.1348 5.65952 20.3456 5.7269 20.548L9.48789 18.4785C9.15901 17.775 8.9882 17.0136 8.98639 16.2433Z" fill="#64748B"/>
<path d="M22.4622 10.4736L16.1219 6.79679C15.9394 6.69344 15.7422 6.61903 15.5372 6.57617V10.7126C16.3985 10.8108 17.2249 11.111 17.9498 11.5893C18.6747 12.0676 19.2779 12.7104 19.7108 13.466C20.1436 14.2217 20.394 15.0691 20.4419 15.9399C20.4898 16.8108 20.3337 17.6807 19.9863 18.4798L23.5494 20.548C23.6132 20.3457 23.6471 20.1351 23.6498 19.923V12.5694C23.6268 12.1513 23.5075 11.7444 23.3014 11.3807C23.0952 11.017 22.808 10.7065 22.4622 10.4736Z" fill="#64748B"/>
<path d="M27.0797 6.7883L16.6129 0.73498C15.9991 0.426653 15.3218 0.266113 14.635 0.266113C13.9482 0.266113 13.271 0.426653 12.6571 0.73498L2.19033 6.7883C1.61582 7.1631 1.13749 7.66794 0.793872 8.26201C0.4503 8.85608 0.251134 9.52272 0.212463 10.2081V22.3147C0.250413 23.0015 0.449219 23.6697 0.792791 24.2654C1.13636 24.8612 1.6151 25.3676 2.19033 25.7439L12.6571 31.7974C13.271 32.1057 13.9482 32.2661 14.635 32.2661C15.3218 32.2661 15.9991 32.1057 16.6129 31.7974L27.0797 25.7439C27.6549 25.3676 28.1336 24.8612 28.4772 24.2654C28.8208 23.6697 29.0196 23.0015 29.0575 22.3147V10.2081C29.0189 9.52272 28.8197 8.85608 28.4761 8.26201C28.1325 7.66794 27.6542 7.1631 27.0797 6.7883ZM25.7358 20.9221C25.7051 21.4498 25.5512 21.9628 25.2866 22.4201C25.0221 22.8775 24.6541 23.2664 24.2121 23.5557L16.1491 28.2164C15.6782 28.4545 15.1579 28.5786 14.6303 28.5786C14.1026 28.5786 13.5823 28.4545 13.1114 28.2164L5.05785 23.5557C4.61593 23.2664 4.24793 22.8775 3.98337 22.4201C3.71876 21.9628 3.56494 21.4498 3.5342 20.9221V11.6101C3.56494 11.0825 3.71876 10.5694 3.98337 10.1121C4.24793 9.65473 4.61593 9.26582 5.05785 8.97656L13.1019 4.31582C13.5729 4.07772 14.0931 3.95364 14.6208 3.95364C15.1484 3.95364 15.6687 4.07772 16.1397 4.31582L24.2027 8.97656C24.6463 9.26478 25.0162 9.65325 25.2825 10.1107C25.5488 10.568 25.704 11.0817 25.7358 11.6101V20.9221Z" fill="#64748B"/>
<path d="M10.5799 16.266C10.5799 17.0237 10.8178 17.7644 11.2635 18.3944C11.7092 19.0244 12.3427 19.5154 13.084 19.8054C13.8251 20.0954 14.6407 20.1712 15.4276 20.0234C16.2145 19.8756 16.9372 19.5108 17.5045 18.975C18.0718 18.4392 18.4581 17.7566 18.6146 17.0134C18.7711 16.2703 18.6908 15.5 18.3838 14.8C18.0768 14.1 17.5569 13.5016 16.8898 13.0807C16.2228 12.6597 15.4385 12.4351 14.6362 12.4351C13.5604 12.4351 12.5287 12.8387 11.768 13.5571C11.0073 14.2756 10.5799 15.25 10.5799 16.266Z" fill="#64748B"/>
</svg>
