<svg width="35" height="33" viewBox="0 0 35 33" fill="none" xmlns="http://www.w3.org/2000/svg">
<path d="M11.3003 13.2584L6.1089 10.2402L0.910645 13.2584V19.2809L6.1089 22.2922L11.3003 19.2809V13.2584ZM10.1824 18.6332L6.1089 20.9898L2.03534 18.6332V13.9061L6.1089 11.5426L10.1824 13.9061V18.6332Z" fill="#64748B"/>
<path d="M22.5205 13.2515L17.5302 10.2402L12.5465 13.2515V19.274L17.5302 22.2922L22.5205 19.274V13.2515Z" fill="#64748B"/>
<path d="M28.96 10.2402L23.7686 13.2584V19.2809L28.96 22.2922L34.1582 19.2809V13.2584L28.96 10.2402ZM33.0336 18.6332L28.96 20.9898L24.8864 18.6332V13.9061L28.96 11.5426L33.0336 13.9061V18.6332Z" fill="#64748B"/>
<path d="M6.72961 23.2325V29.2551L11.9347 32.2663L17.1192 29.2551V23.2325L11.9347 20.2144L6.72961 23.2325ZM15.9823 28.628L11.9347 30.964L7.82543 28.628V23.8802L11.9347 21.5167L15.996 23.8802L15.9823 28.628Z" fill="#64748B"/>
<path d="M17.9496 23.2325V29.2551L23.1409 32.2663L28.3392 29.2551V23.2325L23.1409 20.2144L17.9496 23.2325ZM27.2145 28.628L23.1409 30.9846L19.0743 28.628V23.8802L23.1409 21.5167L27.2145 23.8802V28.628Z" fill="#64748B"/>
<path d="M17.1192 9.30678V3.2636L11.9416 0.266113L6.72961 3.2636V9.28613L11.9416 12.3181L17.1192 9.30678ZM7.82688 3.95268L11.9416 1.56847L15.9946 3.95268V8.67975L11.9416 11.0157L7.82688 8.65905V3.95268Z" fill="#64748B"/>
<path d="M28.3392 9.32748V3.28426L23.1409 0.266113L17.9496 3.28426V9.30678L23.1409 12.3181L28.3392 9.32748ZM19.0743 3.97334L23.1409 1.60982L27.2145 3.97334V8.7004L23.1409 11.0571L19.0743 8.7004V3.97334Z" fill="#64748B"/>
</svg>
