<svg width="28" height="33" viewBox="0 0 28 33" fill="none" xmlns="http://www.w3.org/2000/svg">
<path d="M13.9785 3.3776L19.296 6.44823L21.9921 4.89589L13.9785 0.266113L0.593018 8.00057L3.27556 9.5529L13.9785 3.3776Z" fill="#64748B"/>
<path d="M24.6767 6.44824L13.9805 12.6235L8.66311 9.55292L5.97375 11.1053L13.9805 15.7282L27.3729 8.00058L24.6767 6.44824Z" fill="#64748B"/>
<path d="M2.74612 16.838L0.0567627 15.2856V24.5316L13.4423 32.266V29.1614L2.74612 22.9792V16.838Z" fill="#64748B"/>
<path d="M0.0567627 12.1808L10.7529 18.3562V24.4974L13.4423 26.0566V16.8038L0.0567627 9.07617V12.1808Z" fill="#64748B"/>
<path d="M22.5325 15.2858V12.1812L14.5189 16.8041V32.2662L17.2083 30.7139V18.3565L22.5325 15.2858Z" fill="#64748B"/>
<path d="M25.2144 10.6285V22.9791L19.897 26.0566V29.1612L27.9106 24.5315V9.07617L25.2144 10.6285Z" fill="#64748B"/>
</svg>
