<svg width="33" height="33" viewBox="0 0 33 33" fill="none" xmlns="http://www.w3.org/2000/svg">
<path d="M5.025 6.3335L0.0574951 11.301L5.025 16.2685L9.9925 11.301L5.025 6.3335Z" fill="#64748B"/>
<path d="M10.0009 11.2985L5.03155 6.3291C6.34845 7.64648 7.08825 9.43297 7.08825 11.2957C7.08825 13.1584 6.34845 14.9449 5.03155 16.2623L0.0621338 21.2261L5.03155 26.1955L10.0009 21.2261L14.9703 16.2623L10.0009 11.2985Z" fill="#CBD5E1"/>
<path d="M27.0848 26.2065L32.0522 21.239L27.0848 16.2715L22.1173 21.239L27.0848 26.2065Z" fill="#64748B"/>
<path d="M22.1178 21.2373L27.0873 26.2011C25.7703 24.8837 25.0306 23.0972 25.0306 21.2345C25.0306 19.3718 25.7703 17.5853 27.0873 16.2679L32.0567 11.2985L27.0873 6.3291L22.1178 11.2985L17.1541 16.2679L22.1178 21.2373Z" fill="#CBD5E1"/>
<path d="M6.12415 27.2986L11.0916 32.2661L16.0591 27.2986L11.0916 22.3311L6.12415 27.2986Z" fill="#64748B"/>
<path d="M11.0921 22.3237L6.12268 27.2931C7.44006 25.9762 9.22651 25.2364 11.0893 25.2364C12.952 25.2364 14.7385 25.9762 16.0558 27.2931L21.0197 32.2626L25.9891 27.2931L21.0197 22.3237L16.0558 17.3599L11.0921 22.3237Z" fill="#CBD5E1"/>
<path d="M25.998 5.23365L21.0305 0.266113L16.063 5.23361L21.0305 10.2012L25.998 5.23365Z" fill="#64748B"/>
<path d="M21.0308 10.2069L25.9947 5.23748C24.6773 6.55438 22.8908 7.29419 21.0281 7.29419C19.1653 7.29419 17.3788 6.55438 16.0614 5.23748L11.0921 0.268066L6.12268 5.23748L11.0921 10.2069L16.0614 15.1763L21.0308 10.2069Z" fill="#CBD5E1"/>
</svg>
