<svg width="159" height="128" viewBox="0 0 159 128" fill="none" xmlns="http://www.w3.org/2000/svg">
<path d="M107.505 103.314L97.6053 93.4142C97.4143 93.2297 97.2619 93.009 97.1571 92.765C97.0523 92.521 96.9971 92.2585 96.9948 91.993C96.9925 91.7274 97.0431 91.464 97.1437 91.2183C97.2442 90.9725 97.3928 90.7492 97.5805 90.5614C97.7683 90.3736 97.9916 90.2251 98.2374 90.1245C98.4832 90.024 98.7466 89.9734 99.0121 89.9757C99.2777 89.978 99.5401 90.0331 99.7841 90.138C100.028 90.2428 100.249 90.3951 100.433 90.5862L111.747 101.9C112.122 102.275 112.333 102.784 112.333 103.314C112.333 103.844 112.122 104.353 111.747 104.728L100.433 116.042C100.249 116.233 100.028 116.386 99.7841 116.49C99.5401 116.595 99.2777 116.65 99.0121 116.653C98.7466 116.655 98.4832 116.604 98.2374 116.504C97.9916 116.403 97.7683 116.255 97.5805 116.067C97.3928 115.879 97.2442 115.656 97.1437 115.41C97.0431 115.164 96.9925 114.901 96.9948 114.635C96.9971 114.37 97.0523 114.107 97.1571 113.863C97.2619 113.619 97.4143 113.399 97.6053 113.214L107.505 103.314ZM115.019 112H131.019C131.55 112 132.058 112.211 132.434 112.586C132.809 112.961 133.019 113.47 133.019 114C133.019 114.531 132.809 115.039 132.434 115.414C132.058 115.789 131.55 116 131.019 116H115.019C114.489 116 113.98 115.789 113.605 115.414C113.23 115.039 113.019 114.531 113.019 114C113.019 113.47 113.23 112.961 113.605 112.586C113.98 112.211 114.489 112 115.019 112Z" fill="#CBD5E1"/>
<path d="M41.8297 29.5333C40.9596 28.9568 39.9364 28.655 38.8928 28.6668C37.8491 28.6787 36.8331 29.0038 35.9764 29.5999L9.7597 47.8666C8.3597 48.8399 7.52637 50.4333 7.52637 52.1399V71.8166C7.52637 73.5666 8.40637 75.1966 9.86637 76.1599L36.513 93.7766C37.3649 94.3398 38.3635 94.6401 39.3847 94.6401C40.4059 94.6401 41.4045 94.3398 42.2564 93.7766L69.433 75.8233C70.893 74.8566 71.7697 73.2233 71.7697 71.4766V52.1433C71.7697 50.3966 70.893 48.7666 69.4364 47.7999L41.8297 29.5333ZM62.1297 50.8433L52.083 57.5866L42.663 50.7366L42.603 37.2633L62.1264 50.8433H62.1297ZM35.7897 37.2766V50.4666L26.133 57.2133L16.5097 50.7566L35.7897 37.2766ZM13.8664 57.2533L20.0997 61.4299L13.8664 65.7899V57.2566V57.2533ZM35.9497 85.3633L16.513 72.3333L26.223 65.5433L35.9564 72.0699V85.3699L35.9497 85.3633ZM32.2664 61.3199L38.5597 56.9199L45.893 61.7366L39.393 66.1033L32.2664 61.3199ZM42.823 85.3633V72.0633L52.123 65.8299L62.133 72.4133L42.823 85.3633ZM64.9064 66.0133L58.3064 61.6799L64.9064 57.2499V66.0166V66.0133Z" fill="#F1F5F9"/>
<path d="M135 41.3334C134.293 41.3334 133.614 41.0525 133.114 40.5524C132.614 40.0523 132.333 39.374 132.333 38.6667C132.333 37.9595 132.614 37.2812 133.114 36.7811C133.614 36.281 134.293 36.0001 135 36.0001C137.408 35.999 139.77 35.3458 141.837 34.1099C143.904 32.8741 145.597 31.1017 146.737 28.9809C147.877 26.86 148.422 24.47 148.313 22.0646C148.205 19.6591 147.446 17.328 146.119 15.3187C144.792 13.3095 142.946 11.6971 140.776 10.6527C138.607 9.60839 136.195 9.17109 133.797 9.38726C131.398 9.60343 129.104 10.465 127.156 11.8805C125.208 13.296 123.679 15.2126 122.733 17.4267L120.813 21.9228L116.168 20.3974C115.069 20.0374 113.904 19.9201 112.755 20.0535C111.606 20.1869 110.5 20.5679 109.512 21.1702C108.525 21.7725 107.68 22.5818 107.035 23.5423C106.39 24.5028 105.962 25.5916 105.779 26.7337C105.596 27.8759 105.662 29.0441 105.974 30.158C106.286 31.2718 106.836 32.3048 107.586 33.1856C108.336 34.0664 109.268 34.7741 110.317 35.26C111.367 35.7459 112.51 35.9984 113.666 36.0001H119C119.707 36.0001 120.385 36.281 120.885 36.7811C121.385 37.2812 121.666 37.9595 121.666 38.6667C121.666 39.374 121.385 40.0523 120.885 40.5524C120.385 41.0525 119.707 41.3334 119 41.3334H113.666C111.738 41.3323 109.832 40.9129 108.082 40.104C106.331 39.2951 104.776 38.116 103.526 36.6481C102.275 35.1802 101.357 33.4584 100.836 31.6015C100.315 29.7446 100.203 27.7968 100.508 25.8924C100.813 23.9881 101.527 22.1725 102.602 20.571C103.677 18.9696 105.086 17.6202 106.732 16.6162C108.379 15.6121 110.224 14.9772 112.14 14.7553C114.055 14.5334 115.997 14.7297 117.829 15.3307C119.521 11.3778 122.526 8.12997 126.336 6.13594C130.145 4.14191 134.526 3.52386 138.739 4.38619C142.952 5.24852 146.737 7.53838 149.457 10.869C152.177 14.1996 153.664 18.3668 153.666 22.6667C153.666 27.6175 151.7 32.3654 148.199 35.8661C144.698 39.3668 139.95 41.3334 135 41.3334ZM128.893 33.5041C130.277 34.0321 130.992 35.6401 130.488 37.0934L126.84 47.6268C126.333 49.0801 124.805 49.8294 123.421 49.2987C122.037 48.7707 121.325 47.1628 121.829 45.7094L125.477 35.1761C125.978 33.7227 127.509 32.9734 128.893 33.5041ZM133.245 44.0347C134.629 44.5627 135.341 46.1707 134.837 47.6241L131.189 58.1574C130.688 59.6107 129.157 60.3601 127.773 59.8294C126.389 59.3014 125.674 57.6934 126.178 56.2401L129.826 45.7067C130.333 44.2534 131.861 43.5041 133.245 44.0347ZM124.333 43.8641H132.333C133.805 43.8641 135 45.1174 135 46.6667C135 48.2134 133.805 49.4667 132.333 49.4667H124.333C122.861 49.4667 121.666 48.2134 121.666 46.6667C121.666 45.1201 122.861 43.8667 124.333 43.8667V43.8641Z" fill="#E2E8F0"/>
</svg>
