<svg width="174" height="36" viewBox="0 0 174 36" fill="none" xmlns="http://www.w3.org/2000/svg">
<path d="M21.0001 12.0634L18.5001 12.0634C18.3031 12.0634 18.108 12.1023 17.926 12.1776C17.7441 12.253 17.5787 12.3635 17.4393 12.5027C17.3001 12.6421 17.1896 12.8075 17.1142 12.9894C17.0388 13.1714 17 13.3665 17 13.5635L17 19.0635C16.5 21.0631 16.4065 21.6569 15 23.0635C13.5935 24.47 12.4892 25.5634 10.5 25.5635C9.51511 25.5635 8.90995 25.4404 8 25.0635C7.09004 24.6866 6.19645 23.7599 5.5 23.0635C4.80356 22.367 4.87691 22.4734 4.5 21.5635C4.12309 20.6535 4.00003 20.0484 4.00004 19.0635L4.00004 13.5639C4.0001 13.3669 3.96134 13.1718 3.88599 12.9897C3.81063 12.8077 3.70015 12.6422 3.56086 12.503C3.42155 12.3636 3.25617 12.2531 3.07415 12.1776C2.89214 12.1023 2.69705 12.0634 2.50002 12.0634L-7.43095e-07 12.0634L-4.15255e-07 18.5636C-3.55061e-07 19.9424 0.271592 21.3078 0.799269 22.5817C1.32695 23.8556 2.10038 25.0132 3.07539 25.9882C4.05042 26.9632 5.20793 27.7366 6.48186 28.2642C7.75578 28.7919 9.12116 29.0635 10.5 29.0635C13.2848 29.0635 15.9555 27.9572 17.9247 25.9881C19.8938 24.019 21.0001 21.3483 21.0001 18.5636L21.0001 12.0634Z" fill="#EA580C"/>
<circle cx="4.5" cy="11.501" r="4.5" fill="white"/>
<path d="M33.0313 11.626V14.8135H23.1876V11.626H33.0313ZM25.6251 7.4541H30.1251V23.4385C30.1251 23.9281 30.1876 24.3031 30.3126 24.5635C30.448 24.8239 30.6459 25.0062 30.9063 25.1104C31.1667 25.2041 31.4949 25.251 31.8907 25.251C32.1719 25.251 32.4219 25.2406 32.6407 25.2197C32.8699 25.1885 33.0626 25.1572 33.2188 25.126L33.2344 28.4385C32.849 28.5635 32.4324 28.6624 31.9844 28.7354C31.5365 28.8083 31.0417 28.8447 30.5001 28.8447C29.5105 28.8447 28.6459 28.6833 27.9063 28.3604C27.1771 28.027 26.6146 27.4958 26.2188 26.7666C25.823 26.0374 25.6251 25.0791 25.6251 23.8916V7.4541ZM43.3751 28.8447C42.0626 28.8447 40.8855 28.6364 39.8438 28.2197C38.8021 27.7926 37.9167 27.2041 37.1876 26.4541C36.4688 25.7041 35.9167 24.8343 35.5313 23.8447C35.1459 22.8447 34.9532 21.7822 34.9532 20.6572V20.0322C34.9532 18.751 35.1355 17.5791 35.5001 16.5166C35.8646 15.4541 36.3855 14.5322 37.0626 13.751C37.7501 12.9697 38.5834 12.3708 39.5626 11.9541C40.5417 11.527 41.6459 11.3135 42.8751 11.3135C44.073 11.3135 45.1355 11.5114 46.0626 11.9072C46.9896 12.3031 47.7657 12.8656 48.3907 13.5947C49.0261 14.3239 49.5053 15.1989 49.8282 16.2197C50.1511 17.2301 50.3126 18.3551 50.3126 19.5947V21.4697H36.8751V18.4697H45.8907V18.126C45.8907 17.501 45.7761 16.9437 45.5469 16.4541C45.3282 15.9541 44.9949 15.5583 44.5469 15.2666C44.099 14.9749 43.5261 14.8291 42.8282 14.8291C42.2344 14.8291 41.724 14.9593 41.2969 15.2197C40.8699 15.4801 40.5209 15.8447 40.2501 16.3135C39.9896 16.7822 39.7917 17.3343 39.6563 17.9697C39.5313 18.5947 39.4688 19.2822 39.4688 20.0322V20.6572C39.4688 21.3343 39.5626 21.9593 39.7501 22.5322C39.948 23.1051 40.224 23.5999 40.5782 24.0166C40.9428 24.4333 41.3803 24.7562 41.8907 24.9854C42.4115 25.2145 43.0001 25.3291 43.6563 25.3291C44.4688 25.3291 45.224 25.1729 45.9219 24.8604C46.6303 24.5374 47.2396 24.0531 47.7501 23.4072L49.9376 25.7822C49.5834 26.2926 49.099 26.7822 48.4844 27.251C47.8803 27.7197 47.1511 28.1051 46.2969 28.4072C45.4428 28.6989 44.4688 28.8447 43.3751 28.8447ZM62.0001 24.7197V17.1885C62.0001 16.6468 61.9115 16.1833 61.7344 15.7979C61.5574 15.402 61.2813 15.0947 60.9063 14.876C60.5417 14.6572 60.0678 14.5479 59.4844 14.5479C58.9844 14.5479 58.5521 14.6364 58.1876 14.8135C57.823 14.9801 57.5417 15.2249 57.3438 15.5479C57.1459 15.8604 57.0469 16.2301 57.0469 16.6572H52.5469C52.5469 15.9385 52.7136 15.2562 53.0469 14.6104C53.3803 13.9645 53.8646 13.3968 54.5001 12.9072C55.1355 12.4072 55.8907 12.0166 56.7657 11.7354C57.6511 11.4541 58.6407 11.3135 59.7344 11.3135C61.0469 11.3135 62.2136 11.5322 63.2344 11.9697C64.2553 12.4072 65.0574 13.0635 65.6407 13.9385C66.2344 14.8135 66.5313 15.9072 66.5313 17.2197V24.4541C66.5313 25.3812 66.5886 26.1416 66.7032 26.7354C66.8178 27.3187 66.9844 27.8291 67.2032 28.2666V28.5322H62.6563C62.4376 28.0739 62.2709 27.501 62.1563 26.8135C62.0521 26.1156 62.0001 25.4176 62.0001 24.7197ZM62.5938 18.2354L62.6251 20.7822H60.1094C59.5157 20.7822 59.0001 20.8499 58.5626 20.9854C58.1251 21.1208 57.7657 21.3135 57.4844 21.5635C57.2032 21.8031 56.9949 22.0843 56.8594 22.4072C56.7344 22.7301 56.6719 23.0843 56.6719 23.4697C56.6719 23.8551 56.7605 24.2041 56.9376 24.5166C57.1146 24.8187 57.3699 25.0583 57.7032 25.2354C58.0365 25.402 58.4271 25.4854 58.8751 25.4854C59.5521 25.4854 60.1407 25.3499 60.6407 25.0791C61.1407 24.8083 61.5261 24.4749 61.7969 24.0791C62.0782 23.6833 62.224 23.3083 62.2344 22.9541L63.4219 24.8604C63.2553 25.2874 63.0261 25.7301 62.7344 26.1885C62.4532 26.6468 62.0938 27.0791 61.6563 27.4854C61.2188 27.8812 60.6928 28.2093 60.0782 28.4697C59.4636 28.7197 58.7344 28.8447 57.8907 28.8447C56.8178 28.8447 55.8438 28.6312 54.9688 28.2041C54.1042 27.7666 53.4167 27.1676 52.9063 26.4072C52.4063 25.6364 52.1563 24.7614 52.1563 23.7822C52.1563 22.8968 52.323 22.1104 52.6563 21.4229C52.9896 20.7354 53.4792 20.1572 54.1251 19.6885C54.7813 19.2093 55.599 18.8499 56.5782 18.6104C57.5574 18.3604 58.6928 18.2354 59.9844 18.2354H62.5938ZM76.9844 25.3291C77.5365 25.3291 78.0261 25.2249 78.4532 25.0166C78.8803 24.7979 79.2136 24.4958 79.4532 24.1104C79.7032 23.7145 79.8334 23.251 79.8438 22.7197H84.0782C84.0678 23.9072 83.7501 24.9645 83.1251 25.8916C82.5001 26.8083 81.6615 27.5322 80.6094 28.0635C79.5574 28.5843 78.3803 28.8447 77.0782 28.8447C75.7657 28.8447 74.6199 28.626 73.6407 28.1885C72.6719 27.751 71.8646 27.1468 71.2188 26.376C70.573 25.5947 70.0886 24.6885 69.7657 23.6572C69.4428 22.6156 69.2813 21.501 69.2813 20.3135V19.8604C69.2813 18.6624 69.4428 17.5479 69.7657 16.5166C70.0886 15.4749 70.573 14.5687 71.2188 13.7979C71.8646 13.0166 72.6719 12.4072 73.6407 11.9697C74.6094 11.5322 75.7449 11.3135 77.0469 11.3135C78.4324 11.3135 79.6459 11.5791 80.6876 12.1104C81.7396 12.6416 82.5626 13.402 83.1563 14.3916C83.7605 15.3708 84.0678 16.5322 84.0782 17.876H79.8438C79.8334 17.3135 79.7136 16.8031 79.4844 16.3447C79.2657 15.8864 78.9428 15.5218 78.5157 15.251C78.099 14.9697 77.5834 14.8291 76.9688 14.8291C76.3126 14.8291 75.7761 14.9697 75.3594 15.251C74.9428 15.5218 74.6199 15.8968 74.3907 16.376C74.1615 16.8447 74.0001 17.3812 73.9063 17.9854C73.823 18.5791 73.7813 19.2041 73.7813 19.8604V20.3135C73.7813 20.9697 73.823 21.5999 73.9063 22.2041C73.9896 22.8083 74.1459 23.3447 74.3751 23.8135C74.6146 24.2822 74.9428 24.652 75.3594 24.9229C75.7761 25.1937 76.3178 25.3291 76.9844 25.3291ZM91.0782 4.53223V28.5322H86.5782V4.53223H91.0782ZM90.4376 19.4854H89.2032C89.2136 18.3083 89.3699 17.2249 89.6719 16.2354C89.974 15.2354 90.4063 14.3708 90.9688 13.6416C91.5313 12.902 92.2032 12.3291 92.9844 11.9229C93.7761 11.5166 94.6511 11.3135 95.6094 11.3135C96.4428 11.3135 97.198 11.4333 97.8751 11.6729C98.5626 11.902 99.1511 12.277 99.6407 12.7979C100.141 13.3083 100.526 13.9801 100.797 14.8135C101.068 15.6468 101.203 16.6572 101.203 17.8447V28.5322H96.6719V17.8135C96.6719 17.0635 96.5626 16.4749 96.3438 16.0479C96.1355 15.6104 95.8282 15.3031 95.4219 15.126C95.0261 14.9385 94.5365 14.8447 93.9532 14.8447C93.3074 14.8447 92.7553 14.9645 92.2969 15.2041C91.849 15.4437 91.4896 15.777 91.2188 16.2041C90.948 16.6208 90.7501 17.1104 90.6251 17.6729C90.5001 18.2354 90.4376 18.8395 90.4376 19.4854Z" fill="white"/>
</svg>
