<svg width="66" height="67" viewBox="0 0 66 67" fill="none" xmlns="http://www.w3.org/2000/svg">
<rect x="0.5" y="1.03223" width="65" height="65" rx="14.5" fill="white"/>
<rect x="0.5" y="1.03223" width="65" height="65" rx="14.5" stroke="#CBD5E1"/>
<path fill-rule="evenodd" clip-rule="evenodd" d="M33 36.5268C33.1894 36.7574 40.2752 45.3327 46.9723 45.3327C53.7607 45.3327 57.6039 38.4975 57.6039 38.4975C60.2493 33.7556 57.9037 29.113 57.9037 29.113C57.9037 29.113 54.5095 21.7317 46.9723 21.7317C39.5423 21.7317 33.1793 30.3929 33 30.6388C32.8209 30.3929 26.4578 21.7317 19.0278 21.7317C11.4908 21.7317 8.09637 29.113 8.09637 29.113C8.09637 29.113 5.75073 33.7556 8.396 38.4975C8.396 38.4975 12.2395 45.3327 19.0278 45.3327C25.7249 45.3327 32.8107 36.7574 33 36.5268ZM19.3127 25.8533C14.6701 25.8533 12.6941 29.6315 12.6941 29.6315C12.6941 29.6315 10.5703 33.0149 12.6941 37.3616C14.8183 41.7083 19.2391 41.3131 19.2391 41.3131C19.2391 41.3131 21.6444 41.6587 25.496 38.343C26.8308 37.194 28.3393 35.6053 29.9815 33.4101C29.9815 33.4101 23.9559 25.8533 19.3127 25.8533ZM46.9523 25.8533C51.595 25.8533 53.571 29.6315 53.571 29.6315C53.571 29.6315 55.6946 33.0149 53.571 37.3616C51.4467 41.7083 47.0259 41.3131 47.0259 41.3131C47.0259 41.3131 44.6207 41.6587 40.769 38.343C39.4342 37.194 37.9258 35.6053 36.2835 33.4101C36.2835 33.4101 42.3091 25.8533 46.9523 25.8533Z" fill="url(#paint0_linear_1_1191)"/>
<defs>
<linearGradient id="paint0_linear_1_1191" x1="30.1372" y1="45.7317" x2="34.1373" y2="21.7317" gradientUnits="userSpaceOnUse">
<stop stop-color="#FB923C"/>
<stop offset="0.496353" stop-color="#EF4444"/>
<stop offset="1" stop-color="#701A75"/>
</linearGradient>
</defs>
</svg>
